<svg width="54" height="24" viewBox="0 0 54 24" fill="none" xmlns="http://www.w3.org/2000/svg">
<path d="M7.36461 17.22C6.27794 17.22 5.35794 17.01 4.60461 16.59C3.85794 16.17 3.25461 15.6133 2.79461 14.92C2.34128 14.22 2.01128 13.4433 1.80461 12.59C1.59794 11.7367 1.49461 10.8733 1.49461 10C1.49461 9.17333 1.59794 8.33667 1.80461 7.49C2.01794 6.63667 2.35461 5.85333 2.81461 5.14C3.28128 4.42 3.88794 3.84333 4.63461 3.41C5.38128 2.97667 6.29128 2.76 7.36461 2.76C8.25128 2.76 9.02128 2.91 9.67461 3.21C10.3279 3.50333 10.8679 3.88667 11.2946 4.36C11.7279 4.82667 12.0579 5.31667 12.2846 5.83L9.96461 6.91C9.73794 6.56333 9.50461 6.26667 9.26461 6.02C9.02461 5.76667 8.75128 5.57333 8.44461 5.44C8.14461 5.3 7.78461 5.23 7.36461 5.23C6.76461 5.23 6.26128 5.37667 5.85461 5.67C5.44794 5.95667 5.12128 6.33667 4.87461 6.81C4.62794 7.28333 4.45128 7.8 4.34461 8.36C4.23794 8.92 4.18461 9.46667 4.18461 10C4.18461 10.5667 4.24461 11.13 4.36461 11.69C4.48461 12.25 4.67461 12.76 4.93461 13.22C5.19461 13.68 5.52461 14.05 5.92461 14.33C6.32461 14.6033 6.80461 14.74 7.36461 14.74C7.96461 14.74 8.46794 14.5733 8.87461 14.24C9.28794 13.9 9.65461 13.4667 9.97461 12.94L12.3446 13.83C12.0446 14.4767 11.6679 15.0567 11.2146 15.57C10.7613 16.0833 10.2179 16.4867 9.58461 16.78C8.95128 17.0733 8.21128 17.22 7.36461 17.22ZM15.0323 17V3H24.4923V5.46H17.6223V8.54H21.6923V11H17.6223V14.52H24.9123V17H15.0323Z" fill="#5E5E5E"/>
<path d="M27.9127 17V3H32.6327C33.8461 3 34.8794 3.2 35.7327 3.6C36.5861 3.99333 37.2761 4.52667 37.8027 5.2C38.3361 5.86667 38.7227 6.61667 38.9627 7.45C39.2094 8.27667 39.3327 9.12667 39.3327 10C39.3327 10.8 39.2161 11.61 38.9827 12.43C38.7561 13.25 38.3827 14.0067 37.8627 14.7C37.3427 15.3867 36.6461 15.9433 35.7727 16.37C34.9061 16.79 33.8327 17 32.5527 17H27.9127ZM30.5027 14.54H32.8227C33.5361 14.54 34.1361 14.4067 34.6227 14.14C35.1094 13.8667 35.4994 13.51 35.7927 13.07C36.0927 12.6233 36.3094 12.1333 36.4427 11.6C36.5827 11.06 36.6527 10.5267 36.6527 10C36.6527 9.44 36.5827 8.89 36.4427 8.35C36.3027 7.81 36.0861 7.32 35.7927 6.88C35.4994 6.44 35.1261 6.09 34.6727 5.83C34.2194 5.57 33.6761 5.44 33.0427 5.44H30.5027V14.54ZM47.842 17.22C46.7553 17.22 45.8353 17.01 45.082 16.59C44.3353 16.17 43.732 15.6133 43.272 14.92C42.8186 14.22 42.4886 13.4433 42.282 12.59C42.0753 11.7367 41.972 10.8733 41.972 10C41.972 9.17333 42.0753 8.33667 42.282 7.49C42.4953 6.63667 42.832 5.85333 43.292 5.14C43.7586 4.42 44.3653 3.84333 45.112 3.41C45.8586 2.97667 46.7686 2.76 47.842 2.76C48.7286 2.76 49.4986 2.91 50.152 3.21C50.8053 3.50333 51.3453 3.88667 51.772 4.36C52.2053 4.82667 52.5353 5.31667 52.762 5.83L50.442 6.91C50.2153 6.56333 49.982 6.26667 49.742 6.02C49.502 5.76667 49.2286 5.57333 48.922 5.44C48.622 5.3 48.262 5.23 47.842 5.23C47.242 5.23 46.7386 5.37667 46.332 5.67C45.9253 5.95667 45.5986 6.33667 45.352 6.81C45.1053 7.28333 44.9286 7.8 44.822 8.36C44.7153 8.92 44.662 9.46667 44.662 10C44.662 10.5667 44.722 11.13 44.842 11.69C44.962 12.25 45.152 12.76 45.412 13.22C45.672 13.68 46.002 14.05 46.402 14.33C46.802 14.6033 47.282 14.74 47.842 14.74C48.442 14.74 48.9453 14.5733 49.352 14.24C49.7653 13.9 50.132 13.4667 50.452 12.94L52.822 13.83C52.522 14.4767 52.1453 15.0567 51.692 15.57C51.2386 16.0833 50.6953 16.4867 50.062 16.78C49.4286 17.0733 48.6886 17.22 47.842 17.22Z" fill="white"/>
</svg>
